# xmcd
#
# Track frame offsets:
#	150
#	23254
#	44134
#	64556
#	88205
#	109510
#	132349
#	152691
#	172753
#	195413
#	217372
#	236509
#	260799
#
# Disc length: 3746 seconds
#
# Revision: 2
# Processed by: cddbd v1.4PL0 Copyright (c) Steve Scherf et al.
# Submitted via: audiograbber 1.80
#
DISCID=b00ea00d
DTITLE=Alejandro Sanz - Mtv Unplugged
DYEAR=1900
DGENRE=
TTITLE0=Cuando nadie me ve
TTITLE1=Y sólo se me ocurre amartee
TTITLE2=Amiga mía
TTITLE3=Se le apago la luz
TTITLE4=Quisiera ser
TTITLE5=Aprendiz
TTITLE6=Quiero morir en tu veneno
TTITLE7=Como te echo de menos
TTITLE8=Corazón partío
TTITLE9=Siempre es de noche
TTITLE10=Toca para mi
TTITLE11=Lo que fui es lo que soy
TTITLE12=Todo es de color
EXTD=
EXTT0=
EXTT1=
EXTT2=
EXTT3=
EXTT4=
EXTT5=
EXTT6=
EXTT7=
EXTT8=
EXTT9=
EXTT10=
EXTT11=
EXTT12=
PLAYORDER=
